<svg width="38" height="38" viewBox="0 0 38 38" fill="none" xmlns="http://www.w3.org/2000/svg">
<path d="M25.3341 11.0833C25.3341 10.2089 26.043 9.49999 26.9174 9.49999C27.7919 9.49999 28.5007 10.2089 28.5007 11.0833C28.5007 11.9578 27.7919 12.6667 26.9174 12.6667C26.043 12.6667 25.3341 11.9578 25.3341 11.0833Z" fill="#FBC000"/>
<path fill-rule="evenodd" clip-rule="evenodd" d="M19.0007 11.4792C14.8471 11.4792 11.4799 14.8463 11.4799 19C11.4799 23.1536 14.8471 26.5208 19.0007 26.5208C23.1544 26.5208 26.5216 23.1536 26.5216 19C26.5216 14.8463 23.1544 11.4792 19.0007 11.4792ZM13.8549 19C13.8549 16.158 16.1588 13.8542 19.0007 13.8542C21.8427 13.8542 24.1466 16.158 24.1466 19C24.1466 21.842 21.8427 24.1458 19.0007 24.1458C16.1588 24.1458 13.8549 21.842 13.8549 19Z" fill="#FBC000"/>
<path fill-rule="evenodd" clip-rule="evenodd" d="M27.3263 4.4856C21.8376 3.87215 16.1639 3.87215 10.6752 4.4856C7.48945 4.84165 4.91759 7.35125 4.54305 10.5536C3.88669 16.1654 3.88669 21.8346 4.54305 27.4464C4.91759 30.6487 7.48945 33.1583 10.6752 33.5144C16.164 34.1278 21.8376 34.1278 27.3263 33.5144C30.5121 33.1583 33.0839 30.6487 33.4585 27.4464C34.1148 21.8346 34.1148 16.1654 33.4585 10.5536C33.0839 7.35125 30.5121 4.84165 27.3263 4.4856ZM10.939 6.8459C16.2524 6.25205 21.7491 6.25205 27.0625 6.8459C29.1685 7.08128 30.8555 8.74317 31.0995 10.8295C31.7345 16.258 31.7345 21.742 31.0995 27.1705C30.8555 29.2568 29.1685 30.9187 27.0625 31.1541C21.7491 31.7479 16.2524 31.7479 10.939 31.1541C8.833 30.9187 7.14598 29.2568 6.90197 27.1705C6.26705 21.742 6.26705 16.258 6.90197 10.8295C7.14598 8.74317 8.833 7.08128 10.939 6.8459Z" fill="#FBC000"/>
</svg>
