<svg width="38" height="38" viewBox="0 0 38 38" fill="none" xmlns="http://www.w3.org/2000/svg">
<path fill-rule="evenodd" clip-rule="evenodd" d="M9.16244 22.1977C9.23175 22.221 9.3017 22.2376 9.37159 22.2478C9.4478 22.4269 9.54628 22.6586 9.66116 22.9295C9.94153 23.5908 10.3193 24.4851 10.7092 25.4181C11.5045 27.3208 12.3066 29.282 12.4838 29.8435C12.7031 30.5375 12.9349 31.0093 13.1879 31.3314C13.3188 31.498 13.4701 31.6434 13.6472 31.7536C13.7364 31.809 13.8305 31.8545 13.9288 31.8884C13.9332 31.8899 13.9375 31.8913 13.9418 31.8928C14.4485 32.0841 14.9104 32.0043 15.1997 31.9069C15.3544 31.8548 15.4796 31.7918 15.5684 31.7408C15.6136 31.7148 15.6519 31.6905 15.6824 31.67L15.6896 31.6652L20.1644 28.8746L25.3332 32.8374C25.4095 32.8959 25.4927 32.9449 25.5808 32.9833C26.2017 33.2543 26.8031 33.3488 27.3687 33.2716C27.9334 33.1944 28.3817 32.9572 28.7155 32.6902C29.0423 32.4287 29.2639 32.1359 29.4018 31.9182C29.4723 31.8071 29.5252 31.7088 29.5625 31.6335C29.5812 31.5957 29.5963 31.5631 29.6079 31.5369L29.6229 31.5024L29.6285 31.4889L29.6309 31.4831L29.6319 31.4804L29.6329 31.4779C29.6601 31.41 29.6809 31.3398 29.6951 31.268L34.4138 7.47765C34.4289 7.40157 34.4365 7.32418 34.4365 7.24662C34.4365 6.54993 34.174 5.88746 33.5568 5.48546C33.0292 5.14188 32.4416 5.12709 32.0701 5.15529C31.6695 5.1857 31.2994 5.2846 31.0511 5.36364C30.9219 5.40477 30.8136 5.44445 30.7355 5.47473C30.6962 5.48994 30.664 5.503 30.64 5.51295L30.6221 5.52053L4.15866 15.9017L4.15523 15.903C4.13836 15.9091 4.11671 15.9172 4.09098 15.9272C4.03974 15.9471 3.97108 15.9753 3.89088 16.0116C3.73447 16.0825 3.51505 16.1933 3.28989 16.3475C2.93018 16.5938 2.1029 17.2685 2.2422 18.382C2.35334 19.2704 2.96194 19.816 3.33274 20.0783C3.53634 20.2224 3.72977 20.3254 3.87064 20.3925C3.93599 20.4236 4.07168 20.4787 4.13055 20.5027L4.14541 20.5087L9.16244 22.1977ZM31.5482 7.70743L31.5445 7.70904C31.5313 7.71476 31.518 7.72025 31.5047 7.7255L5.00914 18.1193C4.99531 18.1247 4.98137 18.1299 4.96734 18.1348L4.95259 18.1404C4.93565 18.147 4.90711 18.1586 4.87129 18.1748C4.85098 18.184 4.82978 18.1941 4.80817 18.2048C4.83786 18.2216 4.86628 18.2361 4.89153 18.2481C4.91577 18.2596 4.93426 18.2675 4.94438 18.2717L9.92021 19.9468C10.0113 19.9775 10.0962 20.0181 10.1741 20.0671L26.604 10.4492L26.6194 10.4401C26.6314 10.433 26.6471 10.4239 26.6659 10.4133C26.7033 10.3921 26.7547 10.364 26.8158 10.3329C26.9298 10.2748 27.1123 10.1887 27.3178 10.1252C27.4609 10.0809 27.8828 9.95635 28.3389 10.1027C28.6205 10.193 28.912 10.3871 29.1015 10.716C29.1957 10.8793 29.2459 11.0435 29.2702 11.1937C29.3348 11.4304 29.3246 11.6641 29.274 11.8659C29.1652 12.3005 28.8598 12.6395 28.5819 12.8988C28.3439 13.1212 25.2637 16.0913 22.225 19.0232C20.7097 20.4854 19.2098 21.933 18.0888 23.0152L17.3524 23.7261L26.6497 30.854C26.8629 30.9303 26.9889 30.9264 27.0473 30.9184C27.1168 30.9089 27.1736 30.8822 27.2317 30.8357C27.2967 30.7837 27.3535 30.7136 27.396 30.6466L27.3977 30.6438L31.9743 7.56992C31.9063 7.58625 31.8377 7.60569 31.7715 7.62676C31.6965 7.65062 31.6347 7.67335 31.5937 7.68923C31.5734 7.6971 31.5588 7.70306 31.5509 7.70636L31.5482 7.70743ZM18.1512 27.3311L16.2963 25.909L15.8469 28.7681L18.1512 27.3311ZM14.5947 23.0872L16.4393 21.3065C17.5604 20.2242 19.0604 18.7764 20.5759 17.3141L22.1157 15.8286L11.7923 21.8718L11.8477 22.0024C12.1291 22.666 12.5085 23.5643 12.9006 24.5022C13.1937 25.2036 13.5002 25.942 13.7794 26.6257L14.2275 23.7751C14.2707 23.5002 14.405 23.2623 14.5947 23.0872Z" fill="#FBC000"/>
</svg>
