<svg width="38" height="38" viewBox="0 0 38 38" fill="none" xmlns="http://www.w3.org/2000/svg">
<path d="M12.6108 9.81956C12.3167 9.77658 12.0167 9.83562 11.7609 9.98684H11.739C11.145 10.3351 10.6098 10.7752 10.1534 11.2909C9.77417 11.7294 9.56843 12.173 9.5144 12.6001C9.48219 12.8547 9.50401 13.1092 9.57986 13.3524L9.60688 13.369C10.0339 14.6242 10.5919 15.8316 11.2735 16.9683C12.1516 18.5653 13.2321 20.0422 14.4884 21.3625L14.5258 21.4165L14.585 21.4602L14.6224 21.5038L14.6661 21.5412C15.9911 22.8012 17.4716 23.8868 19.0717 24.7717C20.9004 25.7671 22.0102 26.2378 22.6762 26.4331V26.4435C22.8715 26.5027 23.0492 26.5298 23.2279 26.5298C23.7956 26.4882 24.3329 26.2577 24.7543 25.8752C25.2677 25.4187 25.7029 24.8813 26.0428 24.2843V24.274C26.3618 23.6734 26.2537 23.105 25.7934 22.7206C24.8715 21.9148 23.8747 21.199 22.8165 20.5832C22.1078 20.1988 21.3878 20.4315 21.0958 20.8211L20.4734 21.6056C20.1544 21.9953 19.5746 21.9413 19.5746 21.9413L19.558 21.9516C15.2344 20.8471 14.0811 16.4696 14.0811 16.4696C14.0811 16.4696 14.0271 15.8742 14.4271 15.5708L15.2064 14.9432C15.5794 14.6398 15.8392 13.9207 15.4391 13.2111C14.8275 12.1514 14.1134 11.1543 13.307 10.2341C13.1307 10.0172 12.8834 9.86963 12.6087 9.81748L12.6108 9.81956Z" fill="#FBC000"/>
<path d="M19.9171 7.91669C19.4799 7.91669 19.1255 8.27113 19.1255 8.70836C19.1255 9.14558 19.4799 9.50002 19.9171 9.50002C21.9192 9.50002 23.5829 10.1544 24.8971 11.4075C25.5737 12.0938 26.1003 12.906 26.4461 13.7949C26.7931 14.6871 26.951 15.6385 26.9105 16.5914C26.8919 17.0282 27.231 17.3974 27.6678 17.416C28.1046 17.4345 28.4738 17.0955 28.4924 16.6587C28.5422 15.4863 28.3479 14.3166 27.9217 13.2209C27.4954 12.1252 26.8467 11.1267 26.0153 10.2861L25.9994 10.2709C24.3686 8.71127 22.3015 7.91669 19.9171 7.91669Z" fill="#FBC000"/>
<path d="M19.8633 10.5202C19.426 10.5202 19.0716 10.8746 19.0716 11.3119C19.0716 11.7491 19.426 12.1035 19.8633 12.1035H19.8891C21.3338 12.2053 22.385 12.6869 23.122 13.4774C23.8764 14.2915 24.2673 15.3026 24.2384 16.5537C24.2282 16.9908 24.5744 17.3534 25.0115 17.3635C25.4486 17.3736 25.8112 17.0275 25.8213 16.5904C25.8593 14.9477 25.331 13.5312 24.2824 12.4001L24.2811 12.3987C23.2097 11.249 21.74 10.6408 19.9693 10.522L19.9428 10.5202H19.8633Z" fill="#FBC000"/>
<path d="M19.8333 13.1713C19.3967 13.1483 19.0241 13.4836 19.0011 13.9202C18.9781 14.3568 19.3134 14.7294 19.7501 14.7524C20.4129 14.7873 20.8355 14.9861 21.1011 15.2544C21.368 15.5238 21.5676 15.9552 21.604 16.6317C21.6275 17.0683 22.0004 17.4032 22.437 17.3797C22.8736 17.3562 23.2085 16.9833 23.185 16.5467C23.1339 15.5966 22.8366 14.7567 22.2262 14.1403C21.6145 13.5227 20.7794 13.2211 19.8333 13.1713Z" fill="#FBC000"/>
<path fill-rule="evenodd" clip-rule="evenodd" d="M11.189 3.77386C16.2273 2.64765 21.4522 2.64765 26.4905 3.77386L27.0273 3.89385C30.0305 4.56516 32.4009 6.86863 33.1578 9.85144C34.4367 14.8909 34.4367 20.1701 33.1578 25.2096C32.4009 28.1924 30.0305 30.4958 27.0273 31.1671L26.4905 31.2871C23.3257 31.9946 20.0873 32.2576 16.8677 32.0763L12.6668 35.835C12.3442 36.1237 11.8902 36.2139 11.4818 36.0706C11.0733 35.9272 10.7753 35.573 10.7038 35.1461L10.009 30.9957C7.31356 30.1581 5.22371 27.976 4.52166 25.2096C3.24278 20.1701 3.24278 14.8909 4.52166 9.85144C5.27862 6.86863 7.64895 4.56516 10.6522 3.89385L11.189 3.77386ZM25.9724 6.09166C21.2752 5.04171 16.4042 5.04171 11.7071 6.09166L11.1703 6.21165C9.04097 6.68762 7.36038 8.3208 6.8237 10.4356C5.6421 15.0917 5.6421 19.9692 6.8237 24.6254C7.36038 26.7402 9.04097 28.3734 11.1703 28.8493L11.3121 28.881C11.7837 28.9865 12.1445 29.3672 12.2242 29.8439L12.6902 32.6272L15.6548 29.9747C15.8941 29.7605 16.2101 29.6525 16.5305 29.6751C19.6868 29.8986 22.8676 29.6634 25.9724 28.9693L26.5092 28.8493C28.6385 28.3734 30.3191 26.7402 30.8558 24.6254C32.0374 19.9693 32.0374 15.0917 30.8558 10.4356C30.3191 8.32079 28.6385 6.68762 26.5092 6.21165L25.9724 6.09166Z" fill="#FBC000"/>
</svg>
