<svg aria-hidden="true" style="position: absolute; width: 0; height: 0; overflow: hidden;" version="1.1" xmlns="http://www.w3.org/2000/svg" xmlns:xlink="http://www.w3.org/1999/xlink">
<defs>
<symbol id="icon-phone" viewBox="0 0 32 32">
<path stroke-linejoin="round" stroke-linecap="round" stroke-miterlimit="4" stroke-width="2.9091" d="M30.547 23.157v4.364c0 0.004 0 0.008 0 0.012 0 1.273-0.818 2.355-1.957 2.749l-0.020 0.006c-0.278 0.097-0.598 0.153-0.932 0.153-0.092 0-0.183-0.004-0.273-0.013l0.012 0.001c-4.721-0.526-8.984-2.12-12.662-4.533l0.109 0.067c-3.537-2.271-6.457-5.19-8.66-8.615l-0.068-0.112c-2.354-3.585-3.949-7.87-4.454-12.482l-0.011-0.129c-0.008-0.078-0.012-0.17-0.012-0.262 0-1.606 1.301-2.908 2.906-2.909h4.364c0.008-0 0.019-0 0.029-0 1.463 0 2.674 1.080 2.879 2.486l0.002 0.016c0.205 1.527 0.562 2.907 1.061 4.215l-0.043-0.128c0.118 0.304 0.186 0.656 0.186 1.024 0 0.798-0.321 1.52-0.841 2.046l-1.847 1.847c2.108 3.661 5.066 6.619 8.615 8.667l0.112 0.060 1.847-1.847c0.525-0.52 1.248-0.841 2.045-0.841 0.368 0 0.72 0.068 1.044 0.193l-0.020-0.007c1.181 0.456 2.56 0.813 3.991 1.007l0.097 0.011c0.731 0.106 1.362 0.47 1.81 0.996l0.003 0.004c0.461 0.544 0.706 1.239 0.689 1.953z"></path>
</symbol>
<symbol id="icon-arrow-up-right2" viewBox="0 0 32 32">
<path d="M7.414 27.414l16.586-16.586v7.172c0 1.105 0.895 2 2 2s2-0.895 2-2v-12c0-0.809-0.487-1.538-1.235-1.848-0.248-0.103-0.508-0.151-0.765-0.151v-0.001h-12c-1.105 0-2 0.895-2 2s0.895 2 2 2h7.172l-16.586 16.586c-0.391 0.39-0.586 0.902-0.586 1.414s0.195 1.024 0.586 1.414c0.781 0.781 2.047 0.781 2.828 0z"></path>
</symbol>
<symbol id="icon-arrow-right2" viewBox="0 0 32 32">
<path d="M19.414 27.414l10-10c0.781-0.781 0.781-2.047 0-2.828l-10-10c-0.781-0.781-2.047-0.781-2.828 0s-0.781 2.047 0 2.828l6.586 6.586h-19.172c-1.105 0-2 0.895-2 2s0.895 2 2 2h19.172l-6.586 6.586c-0.39 0.39-0.586 0.902-0.586 1.414s0.195 1.024 0.586 1.414c0.781 0.781 2.047 0.781 2.828 0z"></path>
</symbol>
<symbol id="icon-instagram" viewBox="0 0 32 32">
<path d="M16 2.881c4.275 0 4.781 0.019 6.462 0.094 1.563 0.069 2.406 0.331 2.969 0.55 0.744 0.288 1.281 0.638 1.837 1.194 0.563 0.563 0.906 1.094 1.2 1.838 0.219 0.563 0.481 1.412 0.55 2.969 0.075 1.688 0.094 2.194 0.094 6.463s-0.019 4.781-0.094 6.463c-0.069 1.563-0.331 2.406-0.55 2.969-0.288 0.744-0.637 1.281-1.194 1.837-0.563 0.563-1.094 0.906-1.837 1.2-0.563 0.219-1.413 0.481-2.969 0.55-1.688 0.075-2.194 0.094-6.463 0.094s-4.781-0.019-6.463-0.094c-1.563-0.069-2.406-0.331-2.969-0.55-0.744-0.288-1.281-0.637-1.838-1.194-0.563-0.563-0.906-1.094-1.2-1.837-0.219-0.563-0.481-1.413-0.55-2.969-0.075-1.688-0.094-2.194-0.094-6.463s0.019-4.781 0.094-6.463c0.069-1.563 0.331-2.406 0.55-2.969 0.288-0.744 0.638-1.281 1.194-1.838 0.563-0.563 1.094-0.906 1.838-1.2 0.563-0.219 1.412-0.481 2.969-0.55 1.681-0.075 2.188-0.094 6.463-0.094zM16 0c-4.344 0-4.887 0.019-6.594 0.094-1.7 0.075-2.869 0.35-3.881 0.744-1.056 0.412-1.95 0.956-2.837 1.85-0.894 0.888-1.438 1.781-1.85 2.831-0.394 1.019-0.669 2.181-0.744 3.881-0.075 1.713-0.094 2.256-0.094 6.6s0.019 4.887 0.094 6.594c0.075 1.7 0.35 2.869 0.744 3.881 0.413 1.056 0.956 1.95 1.85 2.837 0.887 0.887 1.781 1.438 2.831 1.844 1.019 0.394 2.181 0.669 3.881 0.744 1.706 0.075 2.25 0.094 6.594 0.094s4.888-0.019 6.594-0.094c1.7-0.075 2.869-0.35 3.881-0.744 1.050-0.406 1.944-0.956 2.831-1.844s1.438-1.781 1.844-2.831c0.394-1.019 0.669-2.181 0.744-3.881 0.075-1.706 0.094-2.25 0.094-6.594s-0.019-4.887-0.094-6.594c-0.075-1.7-0.35-2.869-0.744-3.881-0.394-1.063-0.938-1.956-1.831-2.844-0.887-0.887-1.781-1.438-2.831-1.844-1.019-0.394-2.181-0.669-3.881-0.744-1.712-0.081-2.256-0.1-6.6-0.1v0z"></path>
<path d="M16 7.781c-4.537 0-8.219 3.681-8.219 8.219s3.681 8.219 8.219 8.219 8.219-3.681 8.219-8.219c0-4.537-3.681-8.219-8.219-8.219zM16 21.331c-2.944 0-5.331-2.387-5.331-5.331s2.387-5.331 5.331-5.331c2.944 0 5.331 2.387 5.331 5.331s-2.387 5.331-5.331 5.331z"></path>
<path d="M26.462 7.456c0 1.060-0.859 1.919-1.919 1.919s-1.919-0.859-1.919-1.919c0-1.060 0.859-1.919 1.919-1.919s1.919 0.859 1.919 1.919z"></path>
</symbol>
<symbol id="icon-telegram" viewBox="0 0 32 32">
<path d="M16 0c-8.838 0-16 7.162-16 16s7.162 16 16 16 16-7.163 16-16-7.163-16-16-16zM23.863 10.969l-2.625 12.369c-0.181 0.881-0.712 1.087-1.45 0.681l-4-2.956-1.919 1.869c-0.225 0.219-0.4 0.4-0.8 0.4-0.519 0-0.431-0.194-0.606-0.688l-1.363-4.475-3.956-1.231c-0.856-0.262-0.862-0.85 0.194-1.269l15.412-5.95c0.7-0.319 1.381 0.169 1.113 1.25z"></path>
</symbol>
<symbol id="icon-cart" viewBox="0 0 32 32">
<path stroke-linejoin="round" stroke-linecap="round" stroke-miterlimit="4" stroke-width="2" d="M1.723 1.723h2.87l3.817 17.821c0.287 1.305 1.434 2.268 2.806 2.268 0.022 0 0.045-0 0.067-0.001l-0.003 0h14.033c1.364-0.002 2.506-0.956 2.794-2.234l0.004-0.019 2.368-10.661h-24.35M11.695 28.914c0 0.792-0.642 1.435-1.435 1.435s-1.435-0.642-1.435-1.435c0-0.793 0.643-1.435 1.435-1.435s1.435 0.642 1.435 1.435zM27.479 28.914c0 0.792-0.642 1.435-1.435 1.435s-1.435-0.642-1.435-1.435c0-0.793 0.642-1.435 1.435-1.435s1.435 0.642 1.435 1.435z"></path>
</symbol>
<symbol id="icon-star" viewBox="0 0 32 32">
<path stroke-linejoin="miter" stroke-linecap="butt" stroke-miterlimit="4" stroke-width="1.6842" d="M16.513 12.711l0.222 3.472 11.147-2.85-10.693 4.246 6.155 9.72-7.343-8.857-7.343 8.857 6.155-9.72-10.693-4.246 11.147 2.85 0.734-11.481 0.513 8.010z"></path>
</symbol>
<symbol id="icon-Arrow120deg" viewBox="0 0 32 32">
<path stroke-linejoin="round" stroke-linecap="round" stroke-miterlimit="4" stroke-width="3.5556" d="M3.41 3.408h25.186M28.596 3.408v25.184M28.596 3.408l-25.186 25.184"></path>
</symbol>
</defs>
</svg>