<svg width="31" height="32" viewBox="0 0 31 32" fill="none" xmlns="http://www.w3.org/2000/svg">
<path d="M29.167 22.9701V27.2201C29.1686 27.6146 29.0878 28.0051 28.9297 28.3666C28.7717 28.7281 28.5399 29.0526 28.2491 29.3194C27.9584 29.5861 27.6152 29.7892 27.2414 29.9156C26.8677 30.042 26.4716 30.0889 26.0787 30.0534C21.7194 29.5797 17.5319 28.0901 13.8529 25.7042C10.4299 23.5292 7.52791 20.6271 5.35285 17.2042C2.95866 13.5084 1.4687 9.30063 1.00369 4.92172C0.968284 4.52997 1.01484 4.13513 1.1404 3.76236C1.26595 3.38958 1.46774 3.04703 1.73294 2.75652C1.99813 2.46601 2.32091 2.23389 2.68072 2.07496C3.04054 1.91603 3.4295 1.83376 3.82285 1.83339H8.07285C8.76037 1.82662 9.42689 2.07008 9.94818 2.51839C10.4695 2.9667 10.81 3.58927 10.9062 4.27006C11.0856 5.63015 11.4182 6.96559 11.8979 8.25089C12.0885 8.75795 12.1297 9.30902 12.0167 9.8388C11.9037 10.3686 11.6412 10.8549 11.2604 11.2401L9.46119 13.0392C11.4779 16.5859 14.4145 19.5225 17.9612 21.5392L19.7604 19.7401C20.1455 19.3592 20.6318 19.0967 21.1616 18.9837C21.6914 18.8707 22.2425 18.912 22.7495 19.1026C24.0348 19.5822 25.3703 19.9148 26.7304 20.0942C27.4185 20.1913 28.047 20.5379 28.4963 21.0682C28.9455 21.5984 29.1843 22.2753 29.167 22.9701Z" stroke="#FFFAEA" stroke-width="2" stroke-linecap="round" stroke-linejoin="round"/>
</svg>
