<svg width="72" height="72" viewBox="0 0 72 72" fill="none" xmlns="http://www.w3.org/2000/svg">
<path d="M0 36C0 16.1177 16.1177 0 36 0V0C55.8823 0 72 16.1177 72 36V36C72 55.8823 55.8823 72 36 72V72C16.1177 72 0 55.8823 0 36V36Z" fill="#FBC000"/>
<path d="M21.0752 18.9573H24.0752L28.0652 37.5873C28.2116 38.2696 28.5912 38.8795 29.1388 39.3121C29.6863 39.7447 30.3676 39.9729 31.0652 39.9573H45.7352C46.418 39.9562 47.0799 39.7223 47.6117 39.2941C48.1436 38.8659 48.5134 38.2691 48.6602 37.6023L51.1352 26.4573H25.6802M31.5002 47.3823C31.5002 48.2108 30.8286 48.8823 30.0002 48.8823C29.1718 48.8823 28.5002 48.2108 28.5002 47.3823C28.5002 46.5539 29.1718 45.8823 30.0002 45.8823C30.8286 45.8823 31.5002 46.5539 31.5002 47.3823ZM48.0002 47.3823C48.0002 48.2108 47.3286 48.8823 46.5002 48.8823C45.6718 48.8823 45.0002 48.2108 45.0002 47.3823C45.0002 46.5539 45.6718 45.8823 46.5002 45.8823C47.3286 45.8823 48.0002 46.5539 48.0002 47.3823Z" stroke="black" stroke-width="2" stroke-linecap="round" stroke-linejoin="round"/>
</svg>
