<svg width="564" height="434" viewBox="0 0 564 434" fill="none" xmlns="http://www.w3.org/2000/svg">
<path d="M191.984 209.8C197.055 206.063 202.174 202.632 207.361 199.491C250.44 184.855 298.407 183.707 345.148 188.369C386.088 192.453 436.86 203.921 471.283 220.516C504.403 236.483 561.352 276.647 550.368 309.301C538.771 343.777 506.06 384.882 459.27 399.617C345.173 435.548 143.322 410.184 125.913 303.178C120.537 270.135 162.262 231.707 191.984 209.8Z" fill="url(#paint0_radial_3066_731)"/>
<path d="M330.132 170C274.782 170 231.895 180.384 191.984 209.8C162.262 231.707 120.537 270.135 125.913 303.178C143.322 410.184 345.173 435.548 459.27 399.617C506.06 384.882 538.771 343.777 550.368 309.301C561.352 276.647 504.403 236.483 471.283 220.516C436.86 203.921 386.088 192.453 345.148 188.369C295.725 183.44 244.93 185.005 199.992 202.146C132.242 227.989 102.915 268.128 91.8764 320.016C85.3839 350.534 116.018 375.596 148.938 391.963C231.763 433.141 351.105 447.881 442.252 414.925C490.935 397.322 523.218 379.132 546.364 342.978C555.27 329.067 557.024 309.113 561.38 293.993C566.686 275.574 558.687 255.731 541.358 241.947C529.83 232.777 518.837 224.651 506.321 215.923C492.962 206.608 480.595 201.235 465.277 194.492C440.409 183.546 408.095 170 378.183 170" stroke="url(#paint1_linear_3066_731)" stroke-opacity="0.3" stroke-linecap="round"/>
<path opacity="0.4" d="M356.232 165.59C325.551 140.245 239.67 114.194 160.695 112.397C60.2444 110.111 45.4789 134.008 28.3342 142.615C23.3456 147.941 28.8801 146.026 35.8871 145.523C45.6963 144.819 53.7526 144.985 64.3404 142.576C71.4682 140.954 41.2711 143.209 29.8806 143.707C18.8255 144.191 20.4858 148.218 20.0081 139.161C19.6022 131.467 17.0999 122.719 14.6195 114.743" stroke="#FBC000" stroke-linecap="round"/>
<defs>
<radialGradient id="paint0_radial_3066_731" cx="0" cy="0" r="1" gradientUnits="userSpaceOnUse" gradientTransform="translate(106.171 173.312) rotate(29.2964) scale(512.274 1080.2)">
<stop stop-color="#FBC000" stop-opacity="0.07"/>
<stop offset="1" stop-color="#FBC000" stop-opacity="0"/>
</radialGradient>
<linearGradient id="paint1_linear_3066_731" x1="91" y1="179.659" x2="570.748" y2="403.716" gradientUnits="userSpaceOnUse">
<stop stop-color="#FBC000"/>
<stop offset="0.325893" stop-color="#FBC000" stop-opacity="0.256139"/>
<stop offset="0.695684" stop-color="#FBC000" stop-opacity="0.735087"/>
<stop offset="1" stop-color="#FBC000" stop-opacity="0.07"/>
</linearGradient>
</defs>
</svg>
