<svg width="387" height="333" viewBox="0 0 387 333" fill="none" xmlns="http://www.w3.org/2000/svg">
<path d="M237.34 209C222.955 209 208.784 208.658 194.913 207.722C169.8 208.879 143.681 206.512 120.353 202.602C91.5779 197.779 63.3978 184.236 46.2221 169.012C32.4919 156.842 14.2005 142.845 9.15675 127.425C4.28725 112.537 0.525248 99.4987 1.0487 84.2376C1.59747 68.2386 19.7075 49.5259 32.3226 36.2521C38.5172 29.734 47.9864 22.9328 58.9633 20.2569C79.8218 15.172 96.1597 7.23637 118.036 4.2617C122.639 3.63581 127.243 3.12364 131.849 2.70638C150.68 1.00071 169.565 0.881052 188.692 1.06266C202.186 1.19078 217.05 4.25592 230.391 5.86122C243.322 7.41736 259.516 7.80408 270.931 12.2593C302.1 24.4249 329.713 42.6673 350.853 61.8443C368.651 77.9893 380.511 99.3498 380.969 119.427C381.493 142.467 375.626 158.181 349.695 173.811C333.673 183.467 313.702 190.21 294.097 196.204C276.553 201.568 257.179 209 237.34 209Z" fill="url(#paint0_radial_3066_732)"/>
<path d="M131.936 2.66218C122.274 7.63548 88.2753 13.2058 77.496 17.0578C75.1868 17.883 74.36 18.9348 72.8628 20.2569C66.2473 26.0987 56.7637 29.8464 48.5387 34.6525C39.0769 40.1814 32.8307 46.3882 27.6894 53.8468C24.8672 57.941 19.6658 60.5202 18.4231 65.0434C16.5086 72.0117 17.2648 80.3822 17.2648 87.4366C17.2648 102.617 20.9859 111.584 31.1643 125.825C46.0731 146.685 62.3522 167.261 90.2372 181.808C133.297 204.273 183.844 209 237.34 209C257.179 209 276.553 201.568 294.097 196.204C313.702 190.21 333.673 183.467 349.695 173.811C375.626 158.181 381.493 142.467 380.969 119.427C380.511 99.3498 368.651 77.9893 350.853 61.8443C329.713 42.6673 302.1 24.4249 270.931 12.2593C259.516 7.80408 243.322 7.41736 230.391 5.86121C217.05 4.25592 202.186 1.19078 188.692 1.06266C164.886 0.836625 141.455 1.07729 118.036 4.2617C96.1597 7.23637 79.8218 15.172 58.9633 20.2569C47.9864 22.9328 38.5172 29.734 32.3226 36.2521C19.7075 49.5259 1.59747 68.2386 1.0487 84.2376C0.525248 99.4987 4.28725 112.537 9.15675 127.425C14.2005 142.845 32.4919 156.842 46.2221 169.012C63.3978 184.236 91.5779 197.779 120.353 202.602C158.179 208.942 203.344 211.226 239.657 201.002C249.41 198.256 258.929 193.996 267.456 189.806C279.678 183.8 286.539 177.543 296.413 170.612C304.935 164.629 307.342 156.746 312.629 149.818" stroke="url(#paint1_linear_3066_732)" stroke-opacity="0.3" stroke-linecap="round"/>
<path opacity="0.5" d="M225.23 237C227.792 252.282 243.509 270.799 265.278 283.639C279.798 292.204 315.28 305.471 330.266 308.587C345.252 311.702 353.742 311.842 365.048 314.962C365.048 314.962 368.962 316.48 369.851 316.419C371.113 316.333 372.145 316.035 370.432 314.505C365.492 310.095 360.599 304.665 355.434 300.549C354.507 299.809 352.548 297.934 354.924 299.349C358.836 302.526 359.711 302.423 364.169 306.335C370.302 311.113 373.602 314.744 376.545 317.406C378.196 318.899 375.964 319.32 375.964 319.32L351.887 326.643" stroke="#FBC000" stroke-linecap="round"/>
<defs>
<radialGradient id="paint0_radial_3066_732" cx="0" cy="0" r="1" gradientUnits="userSpaceOnUse" gradientTransform="translate(13.2143 3.61912) rotate(28.863) scale(410.693 857.908)">
<stop stop-color="#FBC000" stop-opacity="0.07"/>
<stop offset="1" stop-color="#FBC000" stop-opacity="0"/>
</radialGradient>
<linearGradient id="paint1_linear_3066_732" x1="1" y1="8.63904" x2="384.746" y2="191.081" gradientUnits="userSpaceOnUse">
<stop stop-color="#FBC000"/>
<stop offset="0.325893" stop-color="#FBC000" stop-opacity="0.256139"/>
<stop offset="0.695684" stop-color="#FBC000" stop-opacity="0.735087"/>
<stop offset="1" stop-color="#FBC000" stop-opacity="0.07"/>
</linearGradient>
</defs>
</svg>
