<svg width="647" height="252" viewBox="0 0 647 252" fill="none" xmlns="http://www.w3.org/2000/svg">
<path d="M425.186 1C442.348 1 460.838 3.25202 478.944 7.55105C505.054 11.1245 531.055 17.4939 557.053 21.8333C573.897 24.6448 586.825 38.5203 603.007 43.8241C616.917 48.3831 637.613 65.4468 642.967 86.6481C647.616 105.06 647.393 129.408 638.971 145.676C631.049 160.976 614.324 180.526 602.008 187.343C589.911 194.038 577.426 199.626 564.727 203.832C555.622 211.19 546.914 217.176 536.074 220.907C518.225 227.052 500.861 239.596 482.129 240.583C464.026 241.537 447.344 251 429.182 251H351.26C317.113 251 282.566 248.252 249.363 235.954C227.977 228.032 207.07 220.005 187.425 204.704C178.482 197.737 164.67 183.006 163.45 166.509C160.77 130.283 170.147 91.8088 189.423 69.287C201.563 55.1034 222.298 41.3845 237.375 35.7222C253.068 29.8287 272.074 24.1481 288.324 24.1481C291.659 24.1481 295 23.9178 298.345 23.5346C305.691 19.1074 313.526 13.7315 321.291 13.7315C356.041 13.7315 390.231 1 425.186 1Z" fill="url(#paint0_radial_3066_729)"/>
<path d="M521.089 21.8333C491.516 8.34712 456.184 1 425.186 1C390.231 1 356.041 13.7315 321.291 13.7315C312.449 13.7315 303.515 20.7026 295.317 25.3056C279.36 34.2643 263.862 45.4314 249.363 58.8704C239.401 68.1043 229.589 77.5382 221.391 90.1204C214.748 100.317 205.239 110.46 201.411 123.685C193.624 150.592 197.033 170.275 212.4 188.5C236.886 217.539 267.598 222.361 297.315 229.009C324.337 235.055 352.947 232.481 380.231 232.481C407.269 232.481 432.769 231.457 459.152 224.38C470.798 221.255 482.327 220.445 494.117 219.75C508.913 218.878 523.401 212.94 538.072 210.491C559.932 206.842 581.526 198.678 602.008 187.343C614.324 180.526 631.049 160.976 638.971 145.676C647.393 129.408 647.616 105.06 642.967 86.6481C637.613 65.4468 616.917 48.3831 603.007 43.8241C586.825 38.5203 573.897 24.6448 557.053 21.8333C510.316 14.0323 463.569 -0.329505 416.195 6.78704C392.742 10.3101 368.782 15.1405 345.266 16.0463C326.227 16.7797 307.188 24.1481 288.324 24.1481C272.074 24.1481 253.068 29.8287 237.375 35.7222C222.298 41.3845 201.563 55.1034 189.423 69.287C170.147 91.8088 160.77 130.283 163.45 166.509C164.67 183.006 178.482 197.737 187.425 204.704C207.07 220.005 227.977 228.032 249.363 235.954C282.566 248.252 317.113 251 351.26 251C377.441 251 403.002 251 429.182 251C447.344 251 464.026 241.537 482.129 240.583C500.861 239.596 518.225 227.052 536.074 220.907C549.764 216.195 560.053 207.886 572.038 197.759C587.751 184.482 604.257 163.456 610 137.574" stroke="url(#paint1_linear_3066_729)" stroke-opacity="0.3" stroke-linecap="round"/>
<path opacity="0.4" d="M209.93 198.861C189.421 208.045 136.919 204.825 91.0606 187.587C32.7325 165.661 26.8077 146.824 17.8359 137.284C15.5338 132.691 18.5244 135.213 22.5208 137.17C28.1152 139.909 32.7913 141.678 38.6496 145.697C42.5934 148.402 25.3806 139.915 18.8494 136.941C12.5104 134.054 13.9106 131.846 12.6444 137.57C11.5686 142.434 9.16556 147.487 6.85948 152.049" stroke="#FBC000" stroke-linecap="round"/>
<defs>
<radialGradient id="paint0_radial_3066_729" cx="0" cy="0" r="1" gradientUnits="userSpaceOnUse" gradientTransform="translate(178.525 4.14798) rotate(27.529) scale(515.537 1044.09)">
<stop stop-color="#FBC000" stop-opacity="0.07"/>
<stop offset="1" stop-color="#FBC000" stop-opacity="0"/>
</radialGradient>
<linearGradient id="paint1_linear_3066_729" x1="163" y1="10.1815" x2="640.347" y2="250.176" gradientUnits="userSpaceOnUse">
<stop stop-color="#FBC000"/>
<stop offset="0.325893" stop-color="#FBC000" stop-opacity="0.256139"/>
<stop offset="0.695684" stop-color="#FBC000" stop-opacity="0.735087"/>
<stop offset="1" stop-color="#FBC000" stop-opacity="0.07"/>
</linearGradient>
</defs>
</svg>
