<svg width="216" height="210" viewBox="0 0 216 210" fill="none" xmlns="http://www.w3.org/2000/svg">
<path d="M108 61.25C120.426 61.25 130.5 51.4562 130.5 39.375C130.5 27.2938 120.426 17.5 108 17.5C95.5736 17.5 85.5 27.2938 85.5 39.375C85.5 51.4562 95.5736 61.25 108 61.25Z" stroke="#FFFAEA" stroke-width="4" stroke-linecap="round" stroke-linejoin="round"/>
<path d="M91.807 55.125L56.707 89.25" stroke="#FFFAEA" stroke-width="4" stroke-linecap="round" stroke-linejoin="round"/>
<path d="M40.5 126.875C52.9264 126.875 63 117.081 63 105C63 92.9188 52.9264 83.125 40.5 83.125C28.0736 83.125 18 92.9188 18 105C18 117.081 28.0736 126.875 40.5 126.875Z" stroke="#FFFAEA" stroke-width="4" stroke-linecap="round" stroke-linejoin="round"/>
<path d="M63 105H153" stroke="#FFFAEA" stroke-width="4" stroke-linecap="round" stroke-linejoin="round"/>
<path d="M175.5 126.875C187.926 126.875 198 117.081 198 105C198 92.9188 187.926 83.125 175.5 83.125C163.074 83.125 153 92.9188 153 105C153 117.081 163.074 126.875 175.5 126.875Z" stroke="#FFFAEA" stroke-width="4" stroke-linecap="round" stroke-linejoin="round"/>
<path d="M124.207 154.875L159.307 120.75" stroke="#FFFAEA" stroke-width="4" stroke-linecap="round" stroke-linejoin="round"/>
<path d="M108 192.5C120.426 192.5 130.5 182.706 130.5 170.625C130.5 158.544 120.426 148.75 108 148.75C95.5736 148.75 85.5 158.544 85.5 170.625C85.5 182.706 95.5736 192.5 108 192.5Z" stroke="#FFFAEA" stroke-width="4" stroke-linecap="round" stroke-linejoin="round"/>
</svg>
