<svg width="512" height="508" viewBox="0 0 512 508" fill="none" xmlns="http://www.w3.org/2000/svg">
<g filter="url(#filter0_d_2250_433)">
<path d="M238 285L251.5 298.125" stroke="#FFFAEA" stroke-width="4" stroke-linecap="round" stroke-linejoin="round"/>
<path d="M274 215L260.5 201.875" stroke="#FFFAEA" stroke-width="4" stroke-linecap="round" stroke-linejoin="round"/>
<path d="M283.021 162.5C266.839 179.983 260.359 197.456 257.758 214.939" stroke="#FFFAEA" stroke-width="4" stroke-linecap="round" stroke-linejoin="round"/>
<path d="M296.5 236.875L305.5 245.625" stroke="#FFFAEA" stroke-width="4" stroke-linecap="round" stroke-linejoin="round"/>
<path d="M301.003 197.5L274.984 172.204" stroke="#FFFAEA" stroke-width="4" stroke-linecap="round" stroke-linejoin="round"/>
<path d="M166 276.25C226.003 223.75 285.997 276.25 346 223.75" stroke="#FFFAEA" stroke-width="4" stroke-linecap="round" stroke-linejoin="round"/>
<path d="M328 223.75L336.019 231.546" stroke="#FFFAEA" stroke-width="4" stroke-linecap="round" stroke-linejoin="round"/>
<path d="M175.984 268.454L184.003 276.25" stroke="#FFFAEA" stroke-width="4" stroke-linecap="round" stroke-linejoin="round"/>
<path d="M206.5 254.375L215.5 263.125" stroke="#FFFAEA" stroke-width="4" stroke-linecap="round" stroke-linejoin="round"/>
<path d="M211 302.5L237.019 327.796" stroke="#FFFAEA" stroke-width="4" stroke-linecap="round" stroke-linejoin="round"/>
<path d="M229 337.5C245.182 320.017 251.662 302.544 254.263 285.061" stroke="#FFFAEA" stroke-width="4" stroke-linecap="round" stroke-linejoin="round"/>
</g>
<defs>
<filter id="filter0_d_2250_433" x="-16" y="-15" width="544" height="538" filterUnits="userSpaceOnUse" color-interpolation-filters="sRGB">
<feFlood flood-opacity="0" result="BackgroundImageFix"/>
<feColorMatrix in="SourceAlpha" type="matrix" values="0 0 0 0 0 0 0 0 0 0 0 0 0 0 0 0 0 0 127 0" result="hardAlpha"/>
<feOffset dy="4"/>
<feGaussianBlur stdDeviation="82"/>
<feComposite in2="hardAlpha" operator="out"/>
<feColorMatrix type="matrix" values="0 0 0 0 0 0 0 0 0 0 0 0 0 0 0 0 0 0 0.25 0"/>
<feBlend mode="normal" in2="BackgroundImageFix" result="effect1_dropShadow_2250_433"/>
<feBlend mode="normal" in="SourceGraphic" in2="effect1_dropShadow_2250_433" result="shape"/>
</filter>
</defs>
</svg>
