<svg width="182" height="162" viewBox="0 0 182 162" fill="none" xmlns="http://www.w3.org/2000/svg">
<path d="M70.7533 3.16018V53.1577C70.7533 55.7431 70.2296 58.3032 69.2119 60.6918C68.1943 63.0804 66.7027 65.2508 64.8223 67.0789L28.0033 102.875M70.7533 3.16018C68.4943 3.36143 66.2443 3.59768 64.0033 3.87768M70.7533 3.16018C84.2243 1.94233 97.7824 1.94233 111.253 3.16018M28.0033 102.875L34.9333 101.186C53.7703 96.6609 73.6497 98.8108 91.0033 107.25C108.357 115.69 128.236 117.839 147.073 113.314L161.203 109.875M28.0033 102.875L8.18532 122.151C-2.91168 132.923 2.32632 151.175 17.7883 153.739C41.5843 157.694 66.0463 159.75 91.0033 159.75C115.539 159.758 140.031 157.748 164.218 153.739C179.671 151.175 184.909 132.923 173.821 122.143L161.203 109.875M111.253 3.16018V53.1577C111.253 58.3814 113.386 63.3952 117.184 67.0789L161.203 109.875M111.253 3.16018C113.512 3.36143 115.762 3.59768 118.003 3.87768" stroke="#FFFAEA" stroke-width="4" stroke-linecap="round" stroke-linejoin="round"/>
</svg>
