<svg width="64" height="64" viewBox="0 0 64 64" fill="none" xmlns="http://www.w3.org/2000/svg">
<rect width="64" height="64" rx="32" fill="#1B1D20"/>
<path d="M38.9992 23.25C38.9992 22.2835 39.7827 21.5 40.7492 21.5C41.7157 21.5 42.4992 22.2835 42.4992 23.25C42.4992 24.2165 41.7157 25 40.7492 25C39.7827 25 38.9992 24.2165 38.9992 23.25Z" fill="#FBC000"/>
<path fill-rule="evenodd" clip-rule="evenodd" d="M31.9992 23.6875C27.4084 23.6875 23.6867 27.4091 23.6867 32C23.6867 36.5908 27.4084 40.3125 31.9992 40.3125C36.5901 40.3125 40.3117 36.5908 40.3117 32C40.3117 27.4091 36.5901 23.6875 31.9992 23.6875ZM26.3117 32C26.3117 28.8588 28.8581 26.3125 31.9992 26.3125C35.1403 26.3125 37.6867 28.8588 37.6867 32C37.6867 35.1411 35.1403 37.6875 31.9992 37.6875C28.8581 37.6875 26.3117 35.1411 26.3117 32Z" fill="#FBC000"/>
<path fill-rule="evenodd" clip-rule="evenodd" d="M41.2012 15.9577C35.1347 15.2797 28.8638 15.2797 22.7973 15.9577C19.2762 16.3513 16.4336 19.125 16.0197 22.6645C15.2942 28.867 15.2942 35.1329 16.0197 41.3355C16.4336 44.8749 19.2762 47.6486 22.7973 48.0422C28.8638 48.7202 35.1347 48.7202 41.2012 48.0422C44.7223 47.6486 47.5648 44.8749 47.9788 41.3355C48.7043 35.1329 48.7043 28.867 47.9788 22.6645C47.5648 19.125 44.7223 16.3513 41.2012 15.9577ZM23.0889 18.5665C28.9616 17.9101 35.0369 17.9101 40.9096 18.5665C43.2373 18.8266 45.1019 20.6635 45.3716 22.9694C46.0733 28.9693 46.0733 35.0306 45.3716 41.0305C45.1019 43.3364 43.2373 45.1733 40.9096 45.4334C35.0369 46.0898 28.9616 46.0898 23.0889 45.4334C20.7612 45.1733 18.8966 43.3364 18.6269 41.0305C17.9251 35.0306 17.9251 28.9693 18.6269 22.9694C18.8966 20.6635 20.7612 18.8266 23.0889 18.5665Z" fill="#FBC000"/>
</svg>
