<svg width="64" height="64" viewBox="0 0 64 64" fill="none" xmlns="http://www.w3.org/2000/svg">
<circle cx="32" cy="32" r="32" fill="#1B1D20"/>
<path d="M46.167 38.97V43.22C46.1686 43.6145 46.0878 44.0051 45.9297 44.3666C45.7717 44.7281 45.5399 45.0526 45.2491 45.3193C44.9584 45.586 44.6152 45.7891 44.2414 45.9155C43.8677 46.0419 43.4716 46.0888 43.0787 46.0533C38.7194 45.5797 34.5319 44.09 30.8529 41.7042C27.4299 39.5291 24.5279 36.6271 22.3529 33.2042C19.9587 29.5084 18.4687 25.3006 18.0037 20.9217C17.9683 20.5299 18.0148 20.1351 18.1404 19.7623C18.2659 19.3895 18.4677 19.047 18.7329 18.7565C18.9981 18.4659 19.3209 18.2338 19.6807 18.0749C20.0405 17.916 20.4295 17.8337 20.8229 17.8333H25.0729C25.7604 17.8266 26.4269 18.07 26.9482 18.5183C27.4695 18.9666 27.81 19.5892 27.9062 20.27C28.0856 21.6301 28.4182 22.9655 28.8979 24.2508C29.0885 24.7579 29.1297 25.309 29.0167 25.8387C28.9037 26.3685 28.6412 26.8548 28.2604 27.24L26.4612 29.0392C28.4779 32.5859 31.4145 35.5225 34.9612 37.5392L36.7604 35.74C37.1455 35.3591 37.6318 35.0966 38.1616 34.9836C38.6914 34.8706 39.2425 34.9119 39.7495 35.1025C41.0348 35.5821 42.3703 35.9148 43.7304 36.0942C44.4185 36.1912 45.047 36.5379 45.4963 37.0681C45.9455 37.5984 46.1843 38.2752 46.167 38.97Z" stroke="#FFFAEA" stroke-width="2" stroke-linecap="round" stroke-linejoin="round"/>
</svg>
