<svg width="249" height="72" viewBox="0 0 249 72" fill="none" xmlns="http://www.w3.org/2000/svg">
<rect width="249" height="72" rx="36" fill="#FBC000"/>
<path d="M49.5854 42.5H47.2814V36.794H41.6294V42.5H39.3254V29.648H41.6294V34.832H47.2814V29.648H49.5854V42.5ZM60.8688 42.5L59.6988 39.098H54.8568L53.7048 42.5H51.2568L55.9728 29.594H58.6008L63.3168 42.5H60.8688ZM57.9888 33.806C57.9408 33.638 57.8688 33.41 57.7728 33.122C57.6768 32.834 57.5808 32.54 57.4848 32.24C57.4008 31.928 57.3348 31.67 57.2868 31.466C57.2268 31.706 57.1488 31.982 57.0528 32.294C56.9688 32.606 56.8848 32.9 56.8008 33.176C56.7288 33.452 56.6688 33.662 56.6208 33.806L55.4868 37.118H59.1048L57.9888 33.806ZM74.529 29.648V40.538H76.221V46.1H73.989V42.5H65.655V46.1H63.423V40.538H64.413C64.785 39.842 65.139 39.092 65.475 38.288C65.823 37.472 66.135 36.608 66.411 35.696C66.699 34.784 66.945 33.824 67.149 32.816C67.365 31.796 67.527 30.74 67.635 29.648H74.529ZM69.507 31.61C69.435 32.258 69.315 32.966 69.147 33.734C68.979 34.502 68.775 35.288 68.535 36.092C68.307 36.896 68.049 37.682 67.761 38.45C67.473 39.206 67.167 39.902 66.843 40.538H72.243V31.61H69.507ZM82.6169 42.5H77.2169V41.186L78.7649 40.61V31.556L77.2169 30.962V29.648H82.6169V30.962L81.0689 31.556V40.61L82.6169 41.186V42.5ZM90.395 31.412C89.807 31.412 89.285 31.52 88.829 31.736C88.373 31.952 87.983 32.264 87.659 32.672C87.347 33.08 87.107 33.572 86.939 34.148C86.783 34.724 86.705 35.372 86.705 36.092C86.705 37.064 86.837 37.898 87.101 38.594C87.365 39.278 87.767 39.806 88.307 40.178C88.859 40.55 89.549 40.736 90.377 40.736C90.929 40.736 91.457 40.682 91.961 40.574C92.477 40.454 93.017 40.298 93.581 40.106V42.068C93.053 42.284 92.519 42.44 91.979 42.536C91.451 42.632 90.839 42.68 90.143 42.68C88.823 42.68 87.731 42.41 86.867 41.87C86.003 41.318 85.361 40.55 84.941 39.566C84.521 38.57 84.311 37.406 84.311 36.074C84.311 35.102 84.443 34.214 84.707 33.41C84.983 32.606 85.373 31.91 85.877 31.322C86.393 30.734 87.029 30.278 87.785 29.954C88.541 29.63 89.411 29.468 90.395 29.468C91.043 29.468 91.679 29.546 92.303 29.702C92.939 29.846 93.533 30.05 94.085 30.314L93.293 32.204C92.837 32 92.363 31.82 91.871 31.664C91.391 31.496 90.899 31.412 90.395 31.412ZM106.159 42.5H103.855V31.592H100.363C100.291 32.192 100.213 32.834 100.129 33.518C100.045 34.19 99.9548 34.868 99.8588 35.552C99.7628 36.224 99.6668 36.866 99.5708 37.478C99.4748 38.078 99.3788 38.606 99.2828 39.062C99.1268 39.83 98.9228 40.49 98.6708 41.042C98.4308 41.582 98.0948 41.99 97.6628 42.266C97.2428 42.542 96.6968 42.68 96.0248 42.68C95.7968 42.68 95.5748 42.662 95.3588 42.626C95.1428 42.59 94.9448 42.542 94.7648 42.482V40.574C94.9208 40.634 95.0768 40.682 95.2328 40.718C95.3888 40.754 95.5568 40.772 95.7368 40.772C96.0248 40.772 96.2528 40.67 96.4208 40.466C96.6008 40.262 96.7508 39.962 96.8708 39.566C96.9908 39.158 97.1048 38.66 97.2128 38.072C97.2848 37.76 97.3628 37.328 97.4468 36.776C97.5308 36.224 97.6268 35.576 97.7348 34.832C97.8548 34.088 97.9748 33.278 98.0948 32.402C98.2268 31.514 98.3468 30.596 98.4548 29.648H106.159V42.5ZM117.453 42.5L116.283 39.098H111.441L110.289 42.5H107.841L112.557 29.594H115.185L119.901 42.5H117.453ZM114.573 33.806C114.525 33.638 114.453 33.41 114.357 33.122C114.261 32.834 114.165 32.54 114.069 32.24C113.985 31.928 113.919 31.67 113.871 31.466C113.811 31.706 113.733 31.982 113.637 32.294C113.553 32.606 113.469 32.9 113.385 33.176C113.313 33.452 113.253 33.662 113.205 33.806L112.071 37.118H115.689L114.573 33.806ZM124.933 42.5H122.629V31.592H118.939V29.648H128.623V31.592H124.933V42.5ZM130.591 29.648H132.679V36.182C132.679 36.482 132.673 36.818 132.661 37.19C132.661 37.55 132.655 37.904 132.643 38.252C132.631 38.6 132.613 38.906 132.589 39.17C132.577 39.434 132.565 39.62 132.553 39.728H132.625L138.997 29.648H141.697V42.5H139.609V36.02C139.609 35.696 139.615 35.342 139.627 34.958C139.639 34.574 139.651 34.202 139.663 33.842C139.687 33.482 139.705 33.17 139.717 32.906C139.741 32.63 139.759 32.438 139.771 32.33H139.699L133.309 42.5H130.591V29.648Z" fill="#111214"/>
<path d="M247.5 36C247.5 53.6731 233.173 68 215.5 68C197.827 68 183.5 53.6731 183.5 36C183.5 18.3269 197.827 4 215.5 4C233.173 4 247.5 18.3269 247.5 36Z" fill="#1B1D20"/>
<path d="M205.583 36H225.416" stroke="#FFFAEA" stroke-width="1.5" stroke-linecap="round" stroke-linejoin="round"/>
<path d="M215.5 26.0835L225.417 36.0002L215.5 45.9168" stroke="#FFFAEA" stroke-width="1.5" stroke-linecap="round" stroke-linejoin="round"/>
</svg>
