<svg width="64" height="64" viewBox="0 0 64 64" fill="none" xmlns="http://www.w3.org/2000/svg">
<rect width="64" height="64" rx="32" fill="#1B1D20"/>
<path fill-rule="evenodd" clip-rule="evenodd" d="M21.1279 35.5343C21.2045 35.5601 21.2818 35.5784 21.359 35.5897C21.4433 35.7876 21.5521 36.0437 21.6791 36.3432C21.989 37.074 22.4065 38.0625 22.8375 39.0937C23.7164 41.1966 24.603 43.3644 24.7988 43.9849C25.0412 44.752 25.2974 45.2735 25.5771 45.6295C25.7218 45.8136 25.889 45.9744 26.0847 46.0961C26.1833 46.1573 26.2874 46.2076 26.396 46.2451C26.4008 46.2467 26.4056 46.2483 26.4103 46.2499C26.9704 46.4614 27.4809 46.3732 27.8006 46.2656C27.9717 46.208 28.1101 46.1384 28.2081 46.082C28.2582 46.0533 28.3004 46.0264 28.3341 46.0037L28.3421 45.9984L33.288 42.914L39.0008 47.2939C39.0852 47.3586 39.1771 47.4128 39.2745 47.4553C39.9608 47.7548 40.6254 47.8593 41.2506 47.7738C41.8747 47.6886 42.3703 47.4264 42.7391 47.1313C43.1004 46.8422 43.3452 46.5186 43.4977 46.2781C43.5756 46.1553 43.6341 46.0466 43.6753 45.9634C43.696 45.9216 43.7127 45.8856 43.7255 45.8566L43.7421 45.8185L43.7483 45.8035L43.7509 45.7971L43.7521 45.7942L43.7532 45.7914C43.7832 45.7164 43.8062 45.6387 43.8219 45.5594L49.0373 19.2648C49.054 19.1807 49.0624 19.0952 49.0624 19.0094C49.0624 18.2394 48.7723 17.5072 48.0901 17.0629C47.507 16.6832 46.8574 16.6668 46.4469 16.698C46.0041 16.7316 45.5951 16.8409 45.3207 16.9283C45.1778 16.9737 45.0581 17.0176 44.9718 17.051C44.9284 17.0679 44.8928 17.0823 44.8663 17.0933L44.8464 17.1017L15.5974 28.5756L15.5936 28.577C15.575 28.5838 15.551 28.5927 15.5226 28.6038C15.466 28.6258 15.3901 28.6569 15.3014 28.6971C15.1286 28.7754 14.886 28.8979 14.6372 29.0683C14.2396 29.3405 13.3252 30.0862 13.4792 31.317C13.602 32.2989 14.2747 32.9019 14.6845 33.1919C14.9096 33.3511 15.1234 33.465 15.2791 33.5391C15.3513 33.5735 15.5013 33.6344 15.5663 33.6608L15.5827 33.6675L21.1279 35.5343ZM45.87 19.5188L45.8659 19.5205C45.8514 19.5269 45.8367 19.5329 45.8219 19.5387L16.5374 31.0266C16.5221 31.0326 16.5067 31.0383 16.4912 31.0437L16.4749 31.0499C16.4562 31.0572 16.4246 31.07 16.385 31.088C16.3626 31.0981 16.3392 31.1092 16.3153 31.1212C16.3481 31.1396 16.3795 31.1557 16.4074 31.169C16.4342 31.1817 16.4546 31.1905 16.4658 31.195L21.9654 33.0465C22.0661 33.0804 22.1599 33.1253 22.2461 33.1794L40.4054 22.5491L40.4224 22.539C40.4357 22.5312 40.453 22.5212 40.4738 22.5094C40.5152 22.486 40.5719 22.4549 40.6395 22.4206C40.7655 22.3564 40.9672 22.2612 41.1943 22.191C41.3525 22.1421 41.8188 22.0044 42.323 22.1661C42.6341 22.2659 42.9563 22.4805 43.1658 22.844C43.2699 23.0245 43.3254 23.206 43.3523 23.372C43.4236 23.6336 43.4123 23.8919 43.3565 24.1149C43.2362 24.5953 42.8987 24.97 42.5915 25.2566C42.3285 25.5024 38.924 28.7851 35.5655 32.0257C33.8907 33.6417 32.2329 35.2418 30.9938 36.4379L30.18 37.2236L40.4559 45.1018C40.6915 45.1862 40.8308 45.1818 40.8953 45.173C40.9721 45.1625 41.035 45.133 41.0992 45.0816C41.171 45.0241 41.2338 44.9466 41.2807 44.8726L41.2826 44.8695L46.341 19.3668C46.2659 19.3848 46.19 19.4063 46.1168 19.4296C46.034 19.456 45.9656 19.4811 45.9203 19.4987C45.8979 19.5073 45.8818 19.5139 45.873 19.5176L45.87 19.5188ZM31.0628 41.2081L29.0127 39.6363L28.5159 42.7963L31.0628 41.2081ZM27.132 36.5175L29.1707 34.5493C30.4099 33.3531 32.0678 31.7529 33.7428 30.1367L35.4447 28.4948L24.0346 35.1741L24.0958 35.3185C24.4068 36.0519 24.8262 37.0447 25.2595 38.0814C25.5835 38.8566 25.9222 39.6728 26.2308 40.4284L26.7261 37.2777C26.7739 36.9739 26.9223 36.711 27.132 36.5175Z" fill="#FBC000"/>
</svg>
