<svg width="64" height="64" viewBox="0 0 64 64" fill="none" xmlns="http://www.w3.org/2000/svg">
<rect width="64" height="64" rx="32" fill="#1B1D20"/>
<path d="M24.9383 21.853C24.6132 21.8055 24.2817 21.8707 23.9988 22.0379H23.9747C23.3181 22.4227 22.7266 22.9092 22.2222 23.4792C21.803 23.9638 21.5756 24.4542 21.5159 24.9262C21.4803 25.2075 21.5044 25.4889 21.5883 25.7577L21.6181 25.776C22.0901 27.1633 22.7068 28.4978 23.4602 29.7542C24.4307 31.5193 25.625 33.1517 27.0135 34.611L27.0548 34.6707L27.1203 34.7189L27.1616 34.7671L27.2099 34.8085C28.6744 36.2011 30.3108 37.4009 32.0792 38.379C34.1005 39.4792 35.327 39.9994 36.0632 40.2153V40.2268C36.2791 40.2923 36.4755 40.3221 36.673 40.3221C37.3004 40.2762 37.8943 40.0215 38.36 39.5986C38.9274 39.0941 39.4084 38.5002 39.7841 37.8404V37.8289C40.1367 37.1651 40.0172 36.5369 39.5085 36.112C38.4896 35.2213 37.3878 34.4303 36.2182 33.7496C35.435 33.3247 34.6391 33.582 34.3164 34.0126L33.6285 34.8797C33.2759 35.3104 32.6351 35.2506 32.6351 35.2506L32.6167 35.2621C27.8381 34.0413 26.5633 29.203 26.5633 29.203C26.5633 29.203 26.5036 28.5449 26.9457 28.2096L27.8071 27.5159C28.2193 27.1806 28.5065 26.3858 28.0643 25.6015C27.3883 24.4302 26.599 23.3282 25.7077 22.3112C25.5129 22.0714 25.2395 21.9083 24.936 21.8507L24.9383 21.853Z" fill="#FBC000"/>
<path d="M33.0137 19.7498C32.5304 19.7498 32.1387 20.1415 32.1387 20.6248C32.1387 21.108 32.5304 21.4998 33.0137 21.4998C35.2265 21.4998 37.0653 22.2231 38.5178 23.6081C39.2656 24.3665 39.8477 25.2643 40.2298 26.2467C40.6135 27.2329 40.7879 28.2844 40.7432 29.3376C40.7226 29.8204 41.0974 30.2285 41.5802 30.249C42.063 30.2695 42.471 29.8948 42.4916 29.412C42.5467 28.1162 42.3319 26.8234 41.8608 25.6123C41.3897 24.4013 40.6726 23.2977 39.7538 22.3686L39.7362 22.3518C37.9338 20.628 35.649 19.7498 33.0137 19.7498Z" fill="#FBC000"/>
<path d="M32.9541 22.6274C32.4709 22.6274 32.0791 23.0191 32.0791 23.5024C32.0791 23.9856 32.4709 24.3774 32.9541 24.3774H32.9827C34.5794 24.4899 35.7414 25.0221 36.5559 25.8958C37.3898 26.7956 37.8218 27.9132 37.7898 29.296C37.7786 29.7791 38.1612 30.1798 38.6443 30.191C39.1274 30.2022 39.5281 29.8196 39.5393 29.3365C39.5813 27.5209 38.9974 25.9553 37.8385 24.7052L37.837 24.7035C36.6528 23.4329 35.0284 22.7607 33.0714 22.6293L33.0421 22.6274H32.9541Z" fill="#FBC000"/>
<path d="M32.921 25.5575C32.4384 25.5321 32.0266 25.9027 32.0012 26.3853C31.9758 26.8679 32.3464 27.2797 32.829 27.3051C33.5617 27.3436 34.0287 27.5634 34.3223 27.8599C34.6172 28.1577 34.8379 28.6345 34.8781 29.3822C34.904 29.8647 35.3163 30.2349 35.7988 30.2089C36.2814 30.183 36.6515 29.7707 36.6256 29.2882C36.5691 28.2382 36.2405 27.3098 35.5658 26.6285C34.8898 25.9459 33.9667 25.6125 32.921 25.5575Z" fill="#FBC000"/>
<path fill-rule="evenodd" clip-rule="evenodd" d="M23.3668 15.1709C28.9355 13.9261 34.7103 13.9261 40.279 15.1709L40.8723 15.3035C44.1916 16.0455 46.8115 18.5914 47.6481 21.8882C49.0616 27.4582 49.0616 33.293 47.6481 38.863C46.8115 42.1598 44.1916 44.7057 40.8723 45.4477L40.279 45.5803C36.781 46.3622 33.2017 46.6529 29.6433 46.4525L25.0002 50.6069C24.6436 50.9259 24.1418 51.0257 23.6904 50.8672C23.239 50.7088 22.9095 50.3173 22.8305 49.8455L22.0626 45.2581C19.0834 44.3324 16.7736 41.9206 15.9976 38.863C14.5841 33.293 14.5841 27.4582 15.9976 21.8882C16.8343 18.5914 19.4541 16.0455 22.7735 15.3035L23.3668 15.1709ZM39.7063 17.7327C34.5148 16.5722 29.131 16.5722 23.9394 17.7327L23.3461 17.8653C20.9927 18.3913 19.1352 20.1964 18.542 22.5339C17.236 27.6801 17.236 33.071 18.542 38.2173C19.1352 40.5547 20.9926 42.3598 23.3461 42.8859L23.5028 42.9209C24.0241 43.0374 24.4228 43.4583 24.511 43.9851L25.026 47.0615L28.3026 44.1297C28.5672 43.893 28.9164 43.7735 29.2705 43.7986C32.7591 44.0456 36.2747 43.7856 39.7063 43.0185L40.2996 42.8859C42.6531 42.3598 44.5106 40.5547 45.1038 38.2173C46.4097 33.071 46.4097 27.6801 45.1038 22.5339C44.5106 20.1964 42.6531 18.3913 40.2996 17.8653L39.7063 17.7327Z" fill="#FBC000"/>
</svg>
